# xmcd
#
# Track frame offsets: 
#        150
#        19563
#        32591
#        49076
#        63890
#        81581
#        100510
#        122233
#
# Disc length: 1942 seconds
#
# Revision: 0
# Processed by: cddbd v1.5.2PL0 Copyright (c) Steve Scherf et al.
# Submitted via: ExactAudioCopyFreeDBPlugin 1.0
#
DISCID=5c079408
DTITLE=Salty Dogs - Brand New Reason
DYEAR=2009
DGENRE=Country
TTITLE0=Rock And Roll Will Never Stay
TTITLE1=Knock 3X
TTITLE2=Second Chance
TTITLE3=Another Day In A Small Town
TTITLE4=Old Folks Home
TTITLE5=Nadine
TTITLE6=Words May Talk
TTITLE7=Every Now And Then
EXTD=
EXTT0=
EXTT1=
EXTT2=
EXTT3=
EXTT4=
EXTT5=
EXTT6=
EXTT7=
PLAYORDER=
